#Comment line ignore any data following # character 
#Hierarchical Translation and Rotation (.htr) file 
[Header]	
#Header keywords are followed by a single value 
FileType HTR		#Single word string
DataType HTRS		#Translation followed by rotation and scale data
FileVersion 1		#integer
NumSegments 25		#integer
NumFrames 4		#integer
DataFrameRate 30		#integer, data frame rate in this file
EulerRotationOrder ZYX
CalibrationUnits mm
RotationUnits Degrees
GlobalAxisofGravity Y
BoneLengthAxis Y
ScaleFactor 1.00
[SegmentNames&Hierarchy]
#CHILD	PARENT
BN_Tick_Root GLOBAL
BN_Torso BN_Tick_Root
BN_L_Leg_Front01 BN_Torso
BN_L_Leg_Rear01 BN_Torso
BN_MetalTop BN_Torso
BN_Neck BN_Torso
BN_R_Leg_Front01 BN_Torso
BN_R_Leg_Rear01 BN_Torso
BN_Sack BN_Torso
BN_L_Leg_Front02 BN_L_Leg_Front01
BN_L_Leg_Front03 BN_L_Leg_Front02
BN_L_Leg_Rear02 BN_L_Leg_Rear01
BN_L_Leg_Rear03 BN_L_Leg_Rear02
BN_Head BN_Neck
BN_Needle BN_Head
BN_R_Leg_Front02 BN_R_Leg_Front01
BN_R_Leg_Front03 BN_R_Leg_Front02
BN_R_Leg_Rear02 BN_R_Leg_Rear01
BN_R_Leg_Rear03 BN_R_Leg_Rear02
BN_SackDef01 BN_Sack
BN_SackDef02 BN_Sack
BN_SackDef03 BN_Sack
BN_SackDef04 BN_Sack
BN_SackDef05 BN_Sack
BN_SackDef06 BN_Sack
[BasePosition]
#SegmentName Tx, Ty, Tz, Rx, Ry, Rz, BoneLength
BN_Tick_Root 0.000000 0.000000 0.000000 -90.000000 0.000000 0.000000 10.000000 
BN_Torso 0.000000 0.000000 0.000000 0.000000 0.000000 0.000000 10.000000 
BN_L_Leg_Front01 0.000000 0.000000 0.000000 0.000000 0.000000 0.000000 10.000000 
BN_L_Leg_Rear01 0.000000 0.000000 0.000000 0.000000 0.000000 0.000000 10.000000 
BN_MetalTop 0.000000 0.000000 0.000000 0.000000 0.000000 0.000000 10.000000 
BN_Neck 0.000000 0.000000 0.000000 0.000000 0.000000 0.000000 10.000000 
BN_R_Leg_Front01 0.000000 0.000000 0.000000 0.000000 0.000000 0.000000 10.000000 
BN_R_Leg_Rear01 0.000000 0.000000 0.000000 0.000000 0.000000 0.000000 10.000000 
BN_Sack 0.000000 0.000000 0.000000 0.000000 0.000000 0.000000 10.000000 
BN_L_Leg_Front02 0.000000 0.000000 0.000000 0.000000 0.000000 0.000000 10.000000 
BN_L_Leg_Front03 0.000000 0.000000 0.000000 0.000000 0.000000 0.000000 10.000000 
BN_L_Leg_Rear02 0.000000 0.000000 0.000000 0.000000 0.000000 0.000000 10.000000 
BN_L_Leg_Rear03 0.000000 0.000000 0.000000 0.000000 0.000000 0.000000 10.000000 
BN_Head 0.000000 0.000000 0.000000 0.000000 0.000000 0.000000 10.000000 
BN_Needle 0.000000 0.000000 0.000000 0.000000 0.000000 0.000000 10.000000 
BN_R_Leg_Front02 0.000000 0.000000 0.000000 0.000000 0.000000 0.000000 10.000000 
BN_R_Leg_Front03 0.000000 0.000000 0.000000 0.000000 0.000000 0.000000 10.000000 
BN_R_Leg_Rear02 0.000000 0.000000 0.000000 0.000000 0.000000 0.000000 10.000000 
BN_R_Leg_Rear03 0.000000 0.000000 0.000000 0.000000 0.000000 0.000000 10.000000 
BN_SackDef01 0.000000 0.000000 0.000000 0.000000 0.000000 0.000000 10.000000 
BN_SackDef02 0.000000 0.000000 0.000000 0.000000 0.000000 0.000000 10.000000 
BN_SackDef03 0.000000 0.000000 0.000000 0.000000 0.000000 0.000000 10.000000 
BN_SackDef04 0.000000 0.000000 0.000000 0.000000 0.000000 0.000000 10.000000 
BN_SackDef05 0.000000 0.000000 0.000000 0.000000 0.000000 0.000000 10.000000 
BN_SackDef06 0.000000 0.000000 0.000000 0.000000 0.000000 0.000000 10.000000 
#Beginning of Data. Separated by tabs
#Fr	Tx	Ty	Tz	Rx	Ry	Rz	SF
[BN_Tick_Root]
74 0.000000 -0.000160 0.000000 0.000000 0.000000 -0.000020 0.000160
75 0.000000 -0.000162 0.000000 0.000000 0.000000 -0.000020 0.000162
76 0.000000 -0.000165 0.000000 0.000000 0.000000 -0.000020 0.000165
77 0.000000 -0.000167 0.000000 0.000000 0.000000 -0.000020 0.000167
[BN_Torso]
74 69.836021 97.855568 292.549286 26.130058 -0.532423 4.926696 316.287628
75 71.922295 93.214653 296.299286 28.072435 -0.457074 11.940914 318.833893
76 73.658417 89.189034 298.318481 29.119112 -0.434336 17.267561 319.959625
77 74.727997 86.320511 296.962402 28.706438 -0.537204 19.668379 318.154327
[BN_L_Leg_Front01]
74 -68.477791 10.734189 -26.804373 44.763622 62.641483 -124.327820 74.316254
75 -68.477791 10.734189 -26.804373 54.029999 64.139420 -125.707054 74.316254
76 -68.477791 10.734189 -26.804373 60.377815 65.947952 -126.956062 74.316254
77 -68.477791 10.734189 -26.804373 61.061939 67.701286 -129.638535 74.316254
[BN_L_Leg_Rear01]
74 -72.133743 -73.994843 -18.268616 88.460800 40.174622 -123.099281 104.939293
75 -72.133743 -73.994843 -18.268616 95.431175 41.747787 -127.884010 104.939293
76 -72.133743 -73.994843 -18.268616 100.602463 43.554024 -131.589279 104.939293
77 -72.133743 -73.994843 -18.268616 102.200989 45.117496 -134.164871 104.939293
[BN_MetalTop]
74 0.000008 13.737477 26.403606 79.995636 -42.117947 -93.585457 29.763546
75 0.000008 13.737477 26.403606 82.838982 -42.182076 -97.594742 29.763546
76 0.000008 13.737477 26.403606 86.370155 -42.820099 -102.252396 29.763546
77 0.000008 13.737477 26.403606 88.271523 -43.500675 -104.600868 29.763546
[BN_Neck]
74 0.000014 95.233284 10.002091 -89.999672 -65.297531 89.999657 95.757088
75 0.000014 95.233284 10.002091 -89.999672 -65.297531 89.999657 95.757088
76 0.000014 95.233284 10.002091 -89.999672 -65.297531 89.999657 95.757088
77 0.000014 95.233284 10.002091 -89.999672 -65.297531 89.999657 95.757088
[BN_R_Leg_Front01]
74 68.477768 10.734107 -26.804314 -39.948830 61.150795 -59.473984 74.316193
75 68.477768 10.734107 -26.804314 -35.873966 57.383820 -63.929726 74.316193
76 68.477768 10.734107 -26.804314 -31.871084 55.067989 -66.340881 74.316193
77 68.477768 10.734107 -26.804314 -29.569080 54.999783 -66.514961 74.316193
[BN_R_Leg_Rear01]
74 72.133751 -73.994873 -18.268644 -74.560089 34.093945 -75.443260 104.939331
75 72.133751 -73.994873 -18.268644 -70.107567 30.969458 -81.192383 104.939331
76 72.133751 -73.994873 -18.268644 -66.568855 29.244286 -85.319595 104.939331
77 72.133751 -73.994873 -18.268644 -64.981819 29.539862 -87.216705 104.939331
[BN_Sack]
74 -0.000000 -78.024918 33.657791 93.591072 -11.522017 -97.103165 84.974907
75 -0.000000 -78.024918 33.657791 94.622314 -11.989470 -103.147812 84.974907
76 -0.000000 -78.024918 33.657791 94.746666 -9.825011 -105.691200 84.974907
77 -0.000000 -78.024918 33.657791 94.299179 -6.012771 -107.317184 84.974907
[BN_L_Leg_Front02]
74 142.805023 -0.000015 -0.000104 0.142942 0.439750 -106.988693 142.805023
75 142.805023 -0.000015 -0.000104 0.157435 0.403161 -103.232361 142.805023
76 142.805023 -0.000015 -0.000104 0.161976 0.377746 -100.493294 142.805023
77 142.805023 -0.000015 -0.000104 0.164991 0.369731 -99.758003 142.805023
[BN_L_Leg_Front03]
74 124.143021 -0.000045 0.000007 0.354339 -0.404475 115.909729 124.143021
75 124.143021 -0.000045 0.000007 0.352725 -0.414380 112.064369 124.143021
76 124.143021 -0.000045 0.000007 0.352797 -0.424772 109.140739 124.143021
77 124.143021 -0.000045 0.000007 0.351734 -0.425202 108.343658 124.143021
[BN_L_Leg_Rear02]
74 139.939041 0.000075 -0.000022 0.090814 -0.217864 91.295517 139.939041
75 139.939041 0.000075 -0.000022 0.094639 -0.224726 91.087631 139.939041
76 139.939041 0.000075 -0.000022 0.098489 -0.231573 90.879730 139.939041
77 139.939041 0.000075 -0.000022 0.091195 -0.217705 91.094772 139.939041
[BN_L_Leg_Rear03]
74 142.839615 0.000179 -0.000060 0.000395 -0.002314 -109.365417 142.839615
75 142.839615 0.000179 -0.000060 0.000390 -0.002315 -109.110466 142.839615
76 142.839615 0.000179 -0.000060 0.000384 -0.002316 -108.855492 142.839615
77 142.839615 0.000179 -0.000060 0.000390 -0.002315 -109.116737 142.839615
[BN_Head]
74 57.062447 -0.000030 0.000000 9.619347 15.707023 63.719963 57.062447
75 57.062447 -0.000030 0.000000 5.158869 21.305006 64.588242 57.062447
76 57.062447 -0.000030 0.000000 2.248924 25.936335 64.484673 57.062447
77 57.062447 -0.000030 0.000000 0.960529 28.061691 63.477039 57.062447
[BN_Needle]
74 43.342995 326.398193 -0.000114 0.000003 0.000030 87.896805 329.263397
75 43.342995 326.398193 -0.000115 0.000003 0.000030 87.896805 329.263397
76 43.342995 326.398193 -0.000115 0.000003 0.000030 87.896805 329.263397
77 43.342995 326.398193 -0.000115 0.000003 0.000030 87.896805 329.263397
[BN_R_Leg_Front02]
74 142.804947 -0.000060 0.000060 -0.146457 0.438051 106.411316 142.804947
75 142.804947 -0.000060 0.000060 -0.150265 0.425173 104.859444 142.804947
76 142.804947 -0.000060 0.000060 -0.151775 0.413004 103.857780 142.804947
77 142.804947 -0.000060 0.000060 -0.154208 0.417126 104.027267 142.804947
[BN_R_Leg_Front03]
74 124.143005 -0.000060 -0.000156 -0.353579 -0.404450 -115.329315 124.143005
75 124.143005 -0.000060 -0.000156 -0.353520 -0.409100 -113.753700 124.143005
76 124.143005 -0.000060 -0.000156 -0.351734 -0.415463 -112.711266 124.143005
77 124.143005 -0.000060 -0.000156 -0.355187 -0.413294 -112.895325 124.143005
[BN_R_Leg_Rear02]
74 139.939011 -0.000149 0.000015 -0.101244 -0.212926 -88.216278 139.939011
75 139.939011 -0.000149 0.000015 -0.107526 -0.215024 -86.764931 139.939011
76 139.939011 -0.000149 0.000015 -0.116677 -0.220790 -85.748466 139.939011
77 139.939011 -0.000149 0.000015 -0.116417 -0.220928 -85.883507 139.939011
[BN_R_Leg_Rear03]
74 142.839417 0.000075 0.000119 0.002325 -0.000319 105.607559 142.839417
75 142.839417 0.000075 0.000119 0.002330 -0.000282 103.802399 142.839417
76 142.839417 0.000075 0.000119 0.002333 -0.000256 102.514648 142.839417
77 142.839417 0.000075 0.000119 0.002333 -0.000259 102.685768 142.839417
[BN_SackDef01]
74 493.702728 -12.158463 85.292656 -128.408218 -44.374973 -11.740845 501.163696
75 486.466278 -11.909348 84.036316 -128.408218 -44.374973 -11.740845 493.815125
76 483.431702 -11.804924 83.509659 -128.408218 -44.374973 -11.740845 490.733551
77 484.072021 -11.826940 83.620827 -128.408218 -44.374973 -11.740845 491.383820
[BN_SackDef02]
74 204.971390 -166.742294 96.600327 32.077126 -27.375721 -88.781525 281.332336
75 202.885300 -163.444885 94.995079 32.077126 -27.375721 -88.781525 277.309845
76 202.063522 -162.145935 94.362785 32.077126 -27.375721 -88.781525 275.726868
77 202.236923 -162.420013 94.496231 32.077126 -27.375721 -88.781525 276.060822
[BN_SackDef03]
74 493.702698 -12.158424 -85.292786 18.144459 44.375008 -11.740894 501.163696
75 486.466278 -11.909329 -84.036705 18.144459 44.375008 -11.740894 493.815216
76 483.431702 -11.804868 -83.509827 18.144459 44.375008 -11.740894 490.733582
77 484.071991 -11.826882 -83.620956 18.144459 44.375008 -11.740894 491.383820
[BN_SackDef04]
74 204.971359 -166.742249 -96.600288 146.059982 27.375723 -88.781555 281.332275
75 202.885269 -163.444839 -94.995087 146.059982 27.375723 -88.781555 277.309784
76 202.063492 -162.145905 -94.362656 146.059982 27.375723 -88.781555 275.726776
77 202.236877 -162.419952 -94.496078 146.059982 27.375723 -88.781555 276.060669
[BN_SackDef05]
74 238.508438 198.735947 -134.215271 0.155741 51.314110 90.605110 338.224762
75 234.734848 193.926865 -131.996719 0.155741 51.314110 90.605110 331.860229
76 233.248245 192.032440 -131.122696 0.155741 51.314110 90.605110 329.354462
77 233.561935 192.432144 -131.307114 0.155741 51.314110 90.605110 329.883118
[BN_SackDef06]
74 238.508484 198.736099 134.214966 152.058487 -51.314072 90.605019 338.224762
75 234.734848 193.927032 131.996414 152.058487 -51.314072 90.605019 331.860199
76 233.248322 192.032593 131.122513 152.058487 -51.314072 90.605019 329.354553
77 233.562012 192.432297 131.306915 152.058487 -51.314072 90.605019 329.883179
